<mxfile host="app.diagrams.net" modified="2023-09-05T06:33:11.186Z" agent="Mozilla/5.0 (Windows NT 10.0; Win64; x64) AppleWebKit/537.36 (KHTML, like Gecko) Chrome/116.0.0.0 Safari/537.36" etag="bzGdhNNQDvlL0J-V0JAJ" version="21.7.1" type="google">
  <diagram id="_W2-D6lv6X5I8XlYy5jh" name="Flipkart System 1.3">
    <mxGraphModel grid="1" page="1" gridSize="10" guides="1" tooltips="1" connect="1" arrows="1" fold="1" pageScale="1" pageWidth="827" pageHeight="1169" math="0" shadow="0">
      <root>
        <mxCell id="0" />
        <mxCell id="1" parent="0" />
        <mxCell id="AUYIAcIq5_yzCkyYjhh5-2" value="Admin" style="rounded=1;whiteSpace=wrap;html=1;" vertex="1" parent="1">
          <mxGeometry y="80" width="200" height="120" as="geometry" />
        </mxCell>
        <mxCell id="AUYIAcIq5_yzCkyYjhh5-3" style="edgeStyle=orthogonalEdgeStyle;rounded=0;orthogonalLoop=1;jettySize=auto;html=1;entryX=-0.007;entryY=0.64;entryDx=0;entryDy=0;entryPerimeter=0;" edge="1" parent="1" source="AUYIAcIq5_yzCkyYjhh5-4" target="AUYIAcIq5_yzCkyYjhh5-19">
          <mxGeometry relative="1" as="geometry" />
        </mxCell>
        <mxCell id="qrXQUlV4Omx71Ou4RAKh-1" style="edgeStyle=orthogonalEdgeStyle;rounded=0;orthogonalLoop=1;jettySize=auto;html=1;exitX=0;exitY=1;exitDx=0;exitDy=0;entryX=0.999;entryY=0.597;entryDx=0;entryDy=0;entryPerimeter=0;" edge="1" parent="1" source="AUYIAcIq5_yzCkyYjhh5-4" target="AUYIAcIq5_yzCkyYjhh5-2">
          <mxGeometry relative="1" as="geometry" />
        </mxCell>
        <mxCell id="AUYIAcIq5_yzCkyYjhh5-4" value="Login" style="ellipse;whiteSpace=wrap;html=1;aspect=fixed;" vertex="1" parent="1">
          <mxGeometry x="340" y="50" width="120" height="120" as="geometry" />
        </mxCell>
        <mxCell id="AUYIAcIq5_yzCkyYjhh5-5" style="edgeStyle=orthogonalEdgeStyle;rounded=0;orthogonalLoop=1;jettySize=auto;html=1;entryX=0;entryY=0.5;entryDx=0;entryDy=0;" edge="1" parent="1" source="AUYIAcIq5_yzCkyYjhh5-6" target="AUYIAcIq5_yzCkyYjhh5-21">
          <mxGeometry relative="1" as="geometry" />
        </mxCell>
        <mxCell id="AUYIAcIq5_yzCkyYjhh5-6" value="Website" style="ellipse;whiteSpace=wrap;html=1;aspect=fixed;" vertex="1" parent="1">
          <mxGeometry x="340" y="190" width="120" height="120" as="geometry" />
        </mxCell>
        <mxCell id="AUYIAcIq5_yzCkyYjhh5-7" style="edgeStyle=orthogonalEdgeStyle;rounded=0;orthogonalLoop=1;jettySize=auto;html=1;entryX=0.75;entryY=1;entryDx=0;entryDy=0;" edge="1" parent="1" source="AUYIAcIq5_yzCkyYjhh5-9" target="AUYIAcIq5_yzCkyYjhh5-2">
          <mxGeometry relative="1" as="geometry" />
        </mxCell>
        <mxCell id="AUYIAcIq5_yzCkyYjhh5-8" style="edgeStyle=orthogonalEdgeStyle;rounded=0;orthogonalLoop=1;jettySize=auto;html=1;entryX=0;entryY=0.5;entryDx=0;entryDy=0;" edge="1" parent="1" source="AUYIAcIq5_yzCkyYjhh5-9" target="AUYIAcIq5_yzCkyYjhh5-23">
          <mxGeometry relative="1" as="geometry" />
        </mxCell>
        <mxCell id="AUYIAcIq5_yzCkyYjhh5-9" value="Category&amp;nbsp;" style="ellipse;whiteSpace=wrap;html=1;aspect=fixed;" vertex="1" parent="1">
          <mxGeometry x="340" y="340" width="120" height="120" as="geometry" />
        </mxCell>
        <mxCell id="AUYIAcIq5_yzCkyYjhh5-10" style="edgeStyle=orthogonalEdgeStyle;rounded=0;orthogonalLoop=1;jettySize=auto;html=1;" edge="1" parent="1" source="AUYIAcIq5_yzCkyYjhh5-11">
          <mxGeometry relative="1" as="geometry">
            <mxPoint x="120" y="200" as="targetPoint" />
          </mxGeometry>
        </mxCell>
        <mxCell id="AUYIAcIq5_yzCkyYjhh5-11" value="Product&amp;nbsp;" style="ellipse;whiteSpace=wrap;html=1;aspect=fixed;" vertex="1" parent="1">
          <mxGeometry x="340" y="480" width="120" height="120" as="geometry" />
        </mxCell>
        <mxCell id="AUYIAcIq5_yzCkyYjhh5-12" style="edgeStyle=orthogonalEdgeStyle;rounded=0;orthogonalLoop=1;jettySize=auto;html=1;entryX=0.5;entryY=1;entryDx=0;entryDy=0;" edge="1" parent="1" source="AUYIAcIq5_yzCkyYjhh5-13" target="AUYIAcIq5_yzCkyYjhh5-2">
          <mxGeometry relative="1" as="geometry" />
        </mxCell>
        <mxCell id="AUYIAcIq5_yzCkyYjhh5-13" value="Cart" style="ellipse;whiteSpace=wrap;html=1;aspect=fixed;" vertex="1" parent="1">
          <mxGeometry x="340" y="630" width="120" height="120" as="geometry" />
        </mxCell>
        <mxCell id="AUYIAcIq5_yzCkyYjhh5-17" value="" style="endArrow=classic;html=1;rounded=0;entryX=0;entryY=0.5;entryDx=0;entryDy=0;" edge="1" parent="1" target="AUYIAcIq5_yzCkyYjhh5-4">
          <mxGeometry width="50" height="50" relative="1" as="geometry">
            <mxPoint x="200" y="110" as="sourcePoint" />
            <mxPoint x="250" y="60" as="targetPoint" />
          </mxGeometry>
        </mxCell>
        <mxCell id="AUYIAcIq5_yzCkyYjhh5-18" style="edgeStyle=orthogonalEdgeStyle;rounded=0;orthogonalLoop=1;jettySize=auto;html=1;" edge="1" parent="1" source="AUYIAcIq5_yzCkyYjhh5-19">
          <mxGeometry relative="1" as="geometry">
            <mxPoint x="460" y="101" as="targetPoint" />
          </mxGeometry>
        </mxCell>
        <mxCell id="AUYIAcIq5_yzCkyYjhh5-19" value="Login Table" style="shape=process;whiteSpace=wrap;html=1;backgroundOutline=1;" vertex="1" parent="1">
          <mxGeometry x="670" y="70" width="120" height="60" as="geometry" />
        </mxCell>
        <mxCell id="AUYIAcIq5_yzCkyYjhh5-20" style="edgeStyle=orthogonalEdgeStyle;rounded=0;orthogonalLoop=1;jettySize=auto;html=1;exitX=0;exitY=0.25;exitDx=0;exitDy=0;entryX=1.003;entryY=0.38;entryDx=0;entryDy=0;entryPerimeter=0;" edge="1" parent="1" source="AUYIAcIq5_yzCkyYjhh5-21" target="AUYIAcIq5_yzCkyYjhh5-6">
          <mxGeometry relative="1" as="geometry" />
        </mxCell>
        <mxCell id="AUYIAcIq5_yzCkyYjhh5-21" value="Website table" style="shape=process;whiteSpace=wrap;html=1;backgroundOutline=1;" vertex="1" parent="1">
          <mxGeometry x="670" y="220" width="120" height="60" as="geometry" />
        </mxCell>
        <mxCell id="AUYIAcIq5_yzCkyYjhh5-22" style="edgeStyle=orthogonalEdgeStyle;rounded=0;orthogonalLoop=1;jettySize=auto;html=1;exitX=0;exitY=0.25;exitDx=0;exitDy=0;entryX=1;entryY=0.375;entryDx=0;entryDy=0;entryPerimeter=0;" edge="1" parent="1" source="AUYIAcIq5_yzCkyYjhh5-23" target="AUYIAcIq5_yzCkyYjhh5-9">
          <mxGeometry relative="1" as="geometry" />
        </mxCell>
        <mxCell id="AUYIAcIq5_yzCkyYjhh5-23" value="Category table" style="shape=process;whiteSpace=wrap;html=1;backgroundOutline=1;" vertex="1" parent="1">
          <mxGeometry x="670" y="370" width="120" height="60" as="geometry" />
        </mxCell>
        <mxCell id="AUYIAcIq5_yzCkyYjhh5-24" style="edgeStyle=orthogonalEdgeStyle;rounded=0;orthogonalLoop=1;jettySize=auto;html=1;" edge="1" parent="1" source="AUYIAcIq5_yzCkyYjhh5-25" target="AUYIAcIq5_yzCkyYjhh5-11">
          <mxGeometry relative="1" as="geometry" />
        </mxCell>
        <mxCell id="AUYIAcIq5_yzCkyYjhh5-25" value="Product table" style="shape=process;whiteSpace=wrap;html=1;backgroundOutline=1;" vertex="1" parent="1">
          <mxGeometry x="670" y="510" width="120" height="60" as="geometry" />
        </mxCell>
        <mxCell id="AUYIAcIq5_yzCkyYjhh5-26" style="edgeStyle=orthogonalEdgeStyle;rounded=0;orthogonalLoop=1;jettySize=auto;html=1;entryX=1;entryY=0.5;entryDx=0;entryDy=0;" edge="1" parent="1" source="AUYIAcIq5_yzCkyYjhh5-27" target="AUYIAcIq5_yzCkyYjhh5-13">
          <mxGeometry relative="1" as="geometry" />
        </mxCell>
        <mxCell id="AUYIAcIq5_yzCkyYjhh5-27" value="Cart table" style="shape=process;whiteSpace=wrap;html=1;backgroundOutline=1;" vertex="1" parent="1">
          <mxGeometry x="670" y="660" width="120" height="60" as="geometry" />
        </mxCell>
        <mxCell id="AUYIAcIq5_yzCkyYjhh5-29" value="Login" style="text;html=1;align=center;verticalAlign=middle;resizable=0;points=[];autosize=1;strokeColor=none;fillColor=none;" vertex="1" parent="1">
          <mxGeometry x="530" y="110" width="50" height="30" as="geometry" />
        </mxCell>
        <mxCell id="AUYIAcIq5_yzCkyYjhh5-30" value="Response" style="text;html=1;align=center;verticalAlign=middle;resizable=0;points=[];autosize=1;strokeColor=none;fillColor=none;" vertex="1" parent="1">
          <mxGeometry x="520" y="68" width="80" height="30" as="geometry" />
        </mxCell>
        <mxCell id="AUYIAcIq5_yzCkyYjhh5-31" value="Login" style="text;html=1;align=center;verticalAlign=middle;resizable=0;points=[];autosize=1;strokeColor=none;fillColor=none;" vertex="1" parent="1">
          <mxGeometry x="245" y="78" width="50" height="30" as="geometry" />
        </mxCell>
        <mxCell id="AUYIAcIq5_yzCkyYjhh5-32" value="" style="endArrow=none;html=1;rounded=0;" edge="1" parent="1">
          <mxGeometry width="50" height="50" relative="1" as="geometry">
            <mxPoint x="340" y="240" as="sourcePoint" />
            <mxPoint x="180" y="240" as="targetPoint" />
          </mxGeometry>
        </mxCell>
        <mxCell id="AUYIAcIq5_yzCkyYjhh5-33" value="" style="endArrow=classic;html=1;rounded=0;" edge="1" parent="1">
          <mxGeometry width="50" height="50" relative="1" as="geometry">
            <mxPoint x="180" y="240" as="sourcePoint" />
            <mxPoint x="180" y="200" as="targetPoint" />
          </mxGeometry>
        </mxCell>
        <mxCell id="AUYIAcIq5_yzCkyYjhh5-34" value="" style="endArrow=none;html=1;rounded=0;" edge="1" parent="1">
          <mxGeometry width="50" height="50" relative="1" as="geometry">
            <mxPoint x="170" y="250" as="sourcePoint" />
            <mxPoint x="170" y="200" as="targetPoint" />
          </mxGeometry>
        </mxCell>
        <mxCell id="AUYIAcIq5_yzCkyYjhh5-35" value="" style="endArrow=classic;html=1;rounded=0;entryX=0;entryY=0.5;entryDx=0;entryDy=0;" edge="1" parent="1" target="AUYIAcIq5_yzCkyYjhh5-6">
          <mxGeometry width="50" height="50" relative="1" as="geometry">
            <mxPoint x="170" y="249.5" as="sourcePoint" />
            <mxPoint x="320" y="249.5" as="targetPoint" />
          </mxGeometry>
        </mxCell>
        <mxCell id="AUYIAcIq5_yzCkyYjhh5-36" value="" style="endArrow=none;html=1;rounded=0;" edge="1" parent="1">
          <mxGeometry width="50" height="50" relative="1" as="geometry">
            <mxPoint x="140" y="410" as="sourcePoint" />
            <mxPoint x="140" y="200" as="targetPoint" />
          </mxGeometry>
        </mxCell>
        <mxCell id="AUYIAcIq5_yzCkyYjhh5-37" value="" style="endArrow=classic;html=1;rounded=0;entryX=-0.023;entryY=0.577;entryDx=0;entryDy=0;entryPerimeter=0;" edge="1" parent="1" target="AUYIAcIq5_yzCkyYjhh5-9">
          <mxGeometry width="50" height="50" relative="1" as="geometry">
            <mxPoint x="140" y="410" as="sourcePoint" />
            <mxPoint x="190" y="360" as="targetPoint" />
            <Array as="points">
              <mxPoint x="160" y="410" />
            </Array>
          </mxGeometry>
        </mxCell>
        <mxCell id="AUYIAcIq5_yzCkyYjhh5-38" value="Response" style="text;html=1;align=center;verticalAlign=middle;resizable=0;points=[];autosize=1;strokeColor=none;fillColor=none;" vertex="1" parent="1">
          <mxGeometry x="505" y="358" width="80" height="30" as="geometry" />
        </mxCell>
        <mxCell id="AUYIAcIq5_yzCkyYjhh5-39" value="Response" style="text;html=1;align=center;verticalAlign=middle;resizable=0;points=[];autosize=1;strokeColor=none;fillColor=none;" vertex="1" parent="1">
          <mxGeometry x="520" y="208" width="80" height="30" as="geometry" />
        </mxCell>
        <mxCell id="AUYIAcIq5_yzCkyYjhh5-40" value="Request" style="text;html=1;align=center;verticalAlign=middle;resizable=0;points=[];autosize=1;strokeColor=none;fillColor=none;" vertex="1" parent="1">
          <mxGeometry x="525" y="258" width="70" height="30" as="geometry" />
        </mxCell>
        <mxCell id="AUYIAcIq5_yzCkyYjhh5-41" value="Request" style="text;html=1;align=center;verticalAlign=middle;resizable=0;points=[];autosize=1;strokeColor=none;fillColor=none;" vertex="1" parent="1">
          <mxGeometry x="515" y="398" width="70" height="30" as="geometry" />
        </mxCell>
        <mxCell id="AUYIAcIq5_yzCkyYjhh5-50" value="" style="endArrow=classic;html=1;rounded=0;entryX=-0.013;entryY=0.147;entryDx=0;entryDy=0;entryPerimeter=0;" edge="1" parent="1" target="AUYIAcIq5_yzCkyYjhh5-25">
          <mxGeometry width="50" height="50" relative="1" as="geometry">
            <mxPoint x="456.5" y="521" as="sourcePoint" />
            <mxPoint x="653.5" y="520" as="targetPoint" />
            <Array as="points">
              <mxPoint x="476.5" y="521" />
            </Array>
          </mxGeometry>
        </mxCell>
        <mxCell id="AUYIAcIq5_yzCkyYjhh5-51" value="" style="endArrow=classic;html=1;rounded=0;entryX=-0.023;entryY=0.577;entryDx=0;entryDy=0;entryPerimeter=0;exitX=1.003;exitY=0.427;exitDx=0;exitDy=0;exitPerimeter=0;" edge="1" parent="1" source="AUYIAcIq5_yzCkyYjhh5-13">
          <mxGeometry width="50" height="50" relative="1" as="geometry">
            <mxPoint x="473" y="681" as="sourcePoint" />
            <mxPoint x="670" y="680" as="targetPoint" />
            <Array as="points">
              <mxPoint x="493" y="681" />
            </Array>
          </mxGeometry>
        </mxCell>
        <mxCell id="AUYIAcIq5_yzCkyYjhh5-52" value="" style="endArrow=classic;html=1;rounded=0;" edge="1" parent="1">
          <mxGeometry width="50" height="50" relative="1" as="geometry">
            <mxPoint x="130" y="521" as="sourcePoint" />
            <mxPoint x="340" y="521" as="targetPoint" />
          </mxGeometry>
        </mxCell>
        <mxCell id="AUYIAcIq5_yzCkyYjhh5-53" value="" style="endArrow=none;html=1;rounded=0;" edge="1" parent="1">
          <mxGeometry width="50" height="50" relative="1" as="geometry">
            <mxPoint x="130" y="522" as="sourcePoint" />
            <mxPoint x="130" y="200" as="targetPoint" />
            <Array as="points">
              <mxPoint x="130" y="352" />
            </Array>
          </mxGeometry>
        </mxCell>
        <mxCell id="AUYIAcIq5_yzCkyYjhh5-54" value="" style="endArrow=none;html=1;rounded=0;" edge="1" parent="1">
          <mxGeometry width="50" height="50" relative="1" as="geometry">
            <mxPoint x="110" y="670" as="sourcePoint" />
            <mxPoint x="110" y="200" as="targetPoint" />
            <Array as="points">
              <mxPoint x="110" y="352" />
            </Array>
          </mxGeometry>
        </mxCell>
        <mxCell id="AUYIAcIq5_yzCkyYjhh5-55" value="" style="endArrow=classic;html=1;rounded=0;" edge="1" parent="1">
          <mxGeometry width="50" height="50" relative="1" as="geometry">
            <mxPoint x="110" y="670" as="sourcePoint" />
            <mxPoint x="340" y="670" as="targetPoint" />
          </mxGeometry>
        </mxCell>
        <mxCell id="AUYIAcIq5_yzCkyYjhh5-56" value="request" style="text;html=1;align=center;verticalAlign=middle;resizable=0;points=[];autosize=1;strokeColor=none;fillColor=none;" vertex="1" parent="1">
          <mxGeometry x="530" y="498" width="60" height="30" as="geometry" />
        </mxCell>
        <mxCell id="AUYIAcIq5_yzCkyYjhh5-57" value="Response" style="text;html=1;align=center;verticalAlign=middle;resizable=0;points=[];autosize=1;strokeColor=none;fillColor=none;" vertex="1" parent="1">
          <mxGeometry x="520" y="538" width="80" height="30" as="geometry" />
        </mxCell>
        <mxCell id="AUYIAcIq5_yzCkyYjhh5-58" value="response" style="text;html=1;align=center;verticalAlign=middle;resizable=0;points=[];autosize=1;strokeColor=none;fillColor=none;" vertex="1" parent="1">
          <mxGeometry x="235" y="218" width="70" height="30" as="geometry" />
        </mxCell>
        <mxCell id="AUYIAcIq5_yzCkyYjhh5-59" value="request" style="text;html=1;align=center;verticalAlign=middle;resizable=0;points=[];autosize=1;strokeColor=none;fillColor=none;" vertex="1" parent="1">
          <mxGeometry x="230" y="248" width="60" height="30" as="geometry" />
        </mxCell>
        <mxCell id="AUYIAcIq5_yzCkyYjhh5-60" value="response" style="text;html=1;align=center;verticalAlign=middle;resizable=0;points=[];autosize=1;strokeColor=none;fillColor=none;" vertex="1" parent="1">
          <mxGeometry x="205" y="378" width="70" height="30" as="geometry" />
        </mxCell>
        <mxCell id="AUYIAcIq5_yzCkyYjhh5-61" value="request" style="text;html=1;align=center;verticalAlign=middle;resizable=0;points=[];autosize=1;strokeColor=none;fillColor=none;" vertex="1" parent="1">
          <mxGeometry x="210" y="408" width="60" height="30" as="geometry" />
        </mxCell>
        <mxCell id="AUYIAcIq5_yzCkyYjhh5-62" value="request" style="text;html=1;align=center;verticalAlign=middle;resizable=0;points=[];autosize=1;strokeColor=none;fillColor=none;" vertex="1" parent="1">
          <mxGeometry x="190" y="498" width="60" height="30" as="geometry" />
        </mxCell>
        <mxCell id="AUYIAcIq5_yzCkyYjhh5-63" value="response" style="text;html=1;align=center;verticalAlign=middle;resizable=0;points=[];autosize=1;strokeColor=none;fillColor=none;" vertex="1" parent="1">
          <mxGeometry x="185" y="548" width="70" height="30" as="geometry" />
        </mxCell>
        <mxCell id="AUYIAcIq5_yzCkyYjhh5-64" value="request" style="text;html=1;align=center;verticalAlign=middle;resizable=0;points=[];autosize=1;strokeColor=none;fillColor=none;" vertex="1" parent="1">
          <mxGeometry x="190" y="638" width="60" height="30" as="geometry" />
        </mxCell>
        <mxCell id="AUYIAcIq5_yzCkyYjhh5-65" value="response" style="text;html=1;align=center;verticalAlign=middle;resizable=0;points=[];autosize=1;strokeColor=none;fillColor=none;" vertex="1" parent="1">
          <mxGeometry x="175" y="688" width="70" height="30" as="geometry" />
        </mxCell>
        <mxCell id="AUYIAcIq5_yzCkyYjhh5-66" value="request" style="text;html=1;align=center;verticalAlign=middle;resizable=0;points=[];autosize=1;strokeColor=none;fillColor=none;" vertex="1" parent="1">
          <mxGeometry x="510" y="648" width="60" height="30" as="geometry" />
        </mxCell>
        <mxCell id="AUYIAcIq5_yzCkyYjhh5-67" value="response" style="text;html=1;align=center;verticalAlign=middle;resizable=0;points=[];autosize=1;strokeColor=none;fillColor=none;" vertex="1" parent="1">
          <mxGeometry x="505" y="688" width="70" height="30" as="geometry" />
        </mxCell>
        <mxCell id="YJXjgFJDtZ89pSUGpGok-1" value="response" style="text;html=1;align=center;verticalAlign=middle;resizable=0;points=[];autosize=1;strokeColor=none;fillColor=none;" vertex="1" parent="1">
          <mxGeometry x="225" y="128" width="70" height="30" as="geometry" />
        </mxCell>
      </root>
    </mxGraphModel>
  </diagram>
</mxfile>
